<svg width="20" height="20" viewBox="0 0 20 20" fill="none" xmlns="http://www.w3.org/2000/svg">
<path d="M9.9999 19.35C15.1638 19.35 19.3499 15.1639 19.3499 10C19.3499 4.83616 15.1638 0.650024 9.9999 0.650024C4.83604 0.650024 0.649902 4.83616 0.649902 10C0.649902 15.1639 4.83604 19.35 9.9999 19.35Z" stroke="white" stroke-width="1.3"/>
<path d="M11.603 9.733L9.357 8.685C9.161 8.594 9 8.696 9 8.913V10.887C9 11.104 9.161 11.206 9.357 11.115L11.602 10.067C11.799 9.975 11.799 9.825 11.603 9.733ZM10 13.8C5.086 13.8 5 13.357 5 9.9C5 6.443 5.086 6 10 6C14.914 6 15 6.443 15 9.9C15 13.357 14.914 13.8 10 13.8Z" fill="white"/>
</svg>
